<?xml version="1.0" standalone="no"?>
<!DOCTYPE svg PUBLIC "-//W3C//DTD SVG 20010904//EN"
 "http://www.w3.org/TR/2001/REC-SVG-20010904/DTD/svg10.dtd">
<svg version="1.0" xmlns="http://www.w3.org/2000/svg"
 width="181.000000pt" height="171.000000pt" viewBox="0 0 181.000000 171.000000"
 preserveAspectRatio="xMidYMid meet">

<g transform="translate(0.000000,171.000000) scale(0.100000,-0.100000)"
fill="#000000" stroke="none">
<path d="M894 1564 c16 -51 556 -1179 566 -1182 18 -6 39 17 77 85 79 142 112
337 84 499 -27 152 -108 301 -224 410 -126 119 -278 189 -436 201 -69 6 -73 5
-67 -13z"/>
<path d="M554 1506 c-161 -81 -271 -190 -344 -341 -58 -120 -74 -190 -74 -330
0 -132 15 -203 64 -312 34 -75 108 -183 125 -183 7 0 99 182 205 405 106 223
197 405 202 405 12 0 98 -182 98 -207 0 -10 -76 -178 -169 -373 -183 -382
-181 -374 -119 -406 119 -62 296 -92 429 -74 145 20 321 93 327 135 1 11 -136
313 -305 670 -249 526 -312 651 -329 653 -11 2 -60 -17 -110 -42z"/>
</g>
</svg>
